<svg width="26" height="26" viewBox="0 0 26 26" fill="none" xmlns="http://www.w3.org/2000/svg">
<path d="M3.0863 11.1583L3.03696 11.45H3.3328H6.4464H6.68242L6.69599 11.2144C6.83718 8.76181 7.30334 6.51046 8.01808 4.70314L8.29346 4.00681L7.65498 4.39804C6.45496 5.13336 5.42632 6.11715 4.63827 7.28322C3.85022 8.4493 3.32103 9.77062 3.0863 11.1583ZM14.953 5.41186C14.5609 4.49717 14.1291 3.84554 13.7196 3.4413L13.7196 3.44128C13.3144 3.04129 13.0051 2.95 12.8 2.95C12.5949 2.95 12.2856 3.04128 11.8804 3.44123C11.8804 3.44125 11.8804 3.44126 11.8804 3.44128L12.056 3.6192L14.953 5.41186ZM18.904 11.2144L18.9176 11.45H19.1536H22.2672H22.563L22.5137 11.1583C22.279 9.77062 21.7498 8.4493 20.9617 7.28322C20.1737 6.11715 19.145 5.13336 17.945 4.39804L17.3065 4.00681L17.5819 4.70314C18.2967 6.51046 18.7628 8.76181 18.904 11.2144ZM16.1983 14.4164L16.2158 14.15H15.9488H9.6512H9.38422L9.40174 14.4164C9.55194 16.7001 10.011 18.7051 10.647 20.1881C11.0391 21.1028 11.4709 21.7545 11.8804 22.1587L11.8804 22.1587C12.2856 22.5587 12.5949 22.65 12.8 22.65C13.005 22.65 13.3142 22.5588 13.7193 22.1591C14.1307 21.7546 14.5626 21.101 14.953 20.1881C15.589 18.7051 16.0481 16.7001 16.1983 14.4164ZM19.1536 14.15H18.9176L18.904 14.3856C18.7628 16.8382 18.2966 19.0911 17.5819 20.8968L17.8144 20.9888L17.945 21.202C19.145 20.4666 20.1737 19.4829 20.9617 18.3168C21.7498 17.1507 22.279 15.8294 22.5137 14.4417L22.563 14.15H22.2672H19.1536ZM6.6976 14.3858L6.68418 14.15H6.448H3.3328H3.03696L3.0863 14.4417C3.32103 15.8294 3.85022 17.1507 4.63827 18.3168C5.42632 19.4829 6.45496 20.4666 7.65498 21.202L7.7856 20.9888L8.01808 20.8969C7.30334 19.0895 6.83719 16.8382 6.6976 14.3858ZM3.92581 3.92581C6.27939 1.57223 9.47153 0.25 12.8 0.25C16.1285 0.25 19.3206 1.57223 21.6742 3.92581C24.0278 6.27939 25.35 9.47153 25.35 12.8C25.35 16.1285 24.0278 19.3206 21.6742 21.6742C19.3206 24.0278 16.1285 25.35 12.8 25.35C9.47153 25.35 6.27939 24.0278 3.92581 21.6742C1.57223 19.3206 0.25 16.1285 0.25 12.8C0.25 9.47153 1.57223 6.27939 3.92581 3.92581Z" fill="#CC1046" stroke="#2A2A2A" stroke-width="0.5"/>
</svg>
