<svg width="31" height="31" viewBox="0 0 31 31" fill="none" xmlns="http://www.w3.org/2000/svg">
<path fill-rule="evenodd" clip-rule="evenodd" d="M15.4999 13.95C16.7332 13.95 17.9159 13.4601 18.788 12.588C19.66 11.716 20.1499 10.5333 20.1499 9.3C20.1499 8.06674 19.66 6.884 18.788 6.01196C17.9159 5.13991 16.7332 4.65 15.4999 4.65C14.2666 4.65 13.0839 5.13991 12.2119 6.01196C11.3398 6.884 10.8499 8.06674 10.8499 9.3C10.8499 10.5333 11.3398 11.716 12.2119 12.588C13.0839 13.4601 14.2666 13.95 15.4999 13.95ZM4.6499 27.9C4.6499 26.4752 4.93055 25.0643 5.47581 23.7479C6.02107 22.4315 6.82028 21.2354 7.82779 20.2279C8.83531 19.2204 10.0314 18.4212 11.3478 17.8759C12.6642 17.3306 14.0751 17.05 15.4999 17.05C16.9247 17.05 18.3356 17.3306 19.652 17.8759C20.9684 18.4212 22.1645 19.2204 23.172 20.2279C24.1795 21.2354 24.9787 22.4315 25.524 23.7479C26.0693 25.0643 26.3499 26.4752 26.3499 27.9H4.6499Z" fill="#CC1046"/>
</svg>
